<svg width="104" height="104" viewBox="0 0 104 104" fill="none" xmlns="http://www.w3.org/2000/svg">
<path opacity="0.4" d="M93.0498 24.8636L63.375 4.0654C55.2725 -1.61152 42.8865 -1.30187 35.0937 4.73631L9.23789 24.9152C4.02545 28.9406 0 37.1979 0 43.7007V79.3104C0 92.4706 10.6829 103.205 23.7914 103.205H79.3736C92.4821 103.205 103.165 92.5222 103.165 79.362V44.3716C103.217 37.4044 98.7267 28.8374 93.0498 24.8636Z" fill="#292D32"/>
<path d="M58.8304 33.5857H44.3801C34.4712 33.5857 26.3687 41.6369 26.3687 51.5973V65.996C26.3687 75.9048 34.4712 84.0073 44.3801 84.0073H58.7788C68.6876 84.0073 76.7901 75.9564 76.7901 65.996V51.5973C76.7901 41.6885 68.7392 33.5857 58.8304 33.5857ZM69.6165 51.5973V55.2099H55.2178V40.8109H58.8304C64.7654 40.8109 69.6165 45.6623 69.6165 51.5973ZM44.3801 40.8109H47.9926V55.2099H33.5938V51.5973C33.5938 45.6623 38.445 40.8109 44.3801 40.8109ZM33.5938 65.996V62.3834H47.9926V76.7822H44.3801C38.445 76.7822 33.5938 71.931 33.5938 65.996ZM58.8304 76.7822H55.2178V62.3834H69.6165V65.996C69.6165 71.931 64.7654 76.7822 58.8304 76.7822Z" fill="#292D32"/>
</svg>
