<svg width="104" height="104" viewBox="0 0 104 104" fill="none" xmlns="http://www.w3.org/2000/svg">
<path opacity="0.4" d="M73.2324 0H29.9845C11.199 0 0 11.199 0 29.9845V73.1808C0 92.0179 11.199 103.217 29.9845 103.217H73.1808C91.9663 103.217 103.165 92.0179 103.165 73.2324V29.9845C103.217 11.199 92.0179 0 73.2324 0Z" fill="#292D32"/>
<path d="M77.4127 32.2553H25.8042C23.6883 32.2553 21.9336 30.5006 21.9336 28.3846C21.9336 26.2687 23.6883 24.514 25.8042 24.514H77.4127C79.5286 24.514 81.2833 26.2687 81.2833 28.3846C81.2833 30.5006 79.5286 32.2553 77.4127 32.2553Z" fill="#292D32"/>
<path d="M77.4127 55.4791H25.8042C23.6883 55.4791 21.9336 53.7244 21.9336 51.6085C21.9336 49.4925 23.6883 47.7379 25.8042 47.7379H77.4127C79.5286 47.7379 81.2833 49.4925 81.2833 51.6085C81.2833 53.7244 79.5286 55.4791 77.4127 55.4791Z" fill="#292D32"/>
<path d="M77.4127 78.7029H25.8042C23.6883 78.7029 21.9336 76.9483 21.9336 74.8323C21.9336 72.7164 23.6883 70.9617 25.8042 70.9617H77.4127C79.5286 70.9617 81.2833 72.7164 81.2833 74.8323C81.2833 76.9483 79.5286 78.7029 77.4127 78.7029Z" fill="#292D32"/>
</svg>
