<svg width="104" height="104" viewBox="0 0 104 104" fill="none" xmlns="http://www.w3.org/2000/svg">
<path opacity="0.4" d="M51.5827 103.165C80.0709 103.165 103.165 80.0713 103.165 51.5827C103.165 23.0944 80.0709 0 51.5827 0C23.0944 0 0 23.0944 0 51.5827C0 80.0713 23.0944 103.165 51.5827 103.165Z" fill="#292D32"/>
<path d="M51.5828 25.4299C40.9052 25.4299 32.2393 34.0958 32.2393 44.7733C32.2393 55.2446 40.4409 63.7557 51.3249 64.0652H51.7891H52.1502H52.2534C62.6731 63.7041 70.8747 55.2446 70.9263 44.7733C70.9263 34.0958 62.2604 25.4299 51.5828 25.4299Z" fill="#292D32"/>
<path d="M86.5595 89.496C77.3778 97.9556 65.1011 103.165 51.5864 103.165C38.0717 103.165 25.795 97.9556 16.6133 89.496C17.8513 84.802 21.2041 80.5206 26.1045 77.2193C40.1866 67.8313 63.0893 67.8313 77.0683 77.2193C82.0202 80.5206 85.3215 84.802 86.5595 89.496Z" fill="#292D32"/>
</svg>
